<svg xmlns="http://www.w3.org/2000/svg" width="32" height="32" viewBox="0 0 32 32">
  <g fill="none" fill-rule="evenodd">
    <rect width="32" height="32"/>
    <path fill="#F582AE" d="M10.5545069,10.2559123 C11.24933,9.26829151 12.4438005,8.86315257 14.1379184,9.04049548 C16.6790953,9.30650983 17.9970961,11.420381 20.3530399,11.570207 C21.9236691,11.6700909 23.1194914,11.2319927 23.9405069,10.2559123 C24.1178834,18.0121827 21.1653215,21.2944048 15.0828212,20.1025785 C10.5750558,18.5572571 9.06561773,15.2750351 10.5545069,10.2559123 Z"/>
    <g fill="#001858" fill-rule="nonzero" transform="rotate(15 -3.692 48.68)">
      <path d="M10.9174194,-1.09516968 C11.5222649,-1.42796575 12.2823736,-1.20742611 12.6151697,-0.6025806 L12.7600472,-0.327877827 C12.8372666,-0.176804212 12.9306912,0.0120809329 13.0367183,0.2354451 C13.3421333,0.878854463 13.6468143,1.59121001 13.9313428,2.35519282 C14.6683293,4.33406386 15.1453638,6.31080847 15.2349349,8.19127282 C15.3855104,11.3524692 14.4174546,13.9719825 12.0487777,15.6899636 C10.6415918,16.7103181 8.84622354,17.25 7,17.25 C5.15401213,17.25 3.35872814,16.7104354 1.950016,15.689814 C-0.418184203,13.9718884 -1.38594826,11.3523773 -1.23518167,8.19119722 C-1.14550224,6.31085447 -0.66844349,4.33423427 0.0685171887,2.35547292 C0.353076639,1.59142233 0.657790794,0.87899936 0.96323886,0.235526019 L1.23993866,-0.327851588 C1.29785909,-0.441167766 1.34666302,-0.533212821 1.38483032,-0.6025806 C1.7176264,-1.20742611 2.47773509,-1.42796575 3.0825806,-1.09516968 C3.68742611,-0.762373601 3.90796575,-0.00226491076 3.57516968,0.6025806 L3.40857678,0.923506254 C3.35445313,1.0317129 3.29165307,1.16023806 3.22170701,1.30759021 C2.94586447,1.88869494 2.66928803,2.53533184 2.41130958,3.22801163 C1.75706989,4.98466466 1.33772272,6.72216577 1.26197987,8.31029468 C1.14805813,10.6989351 1.81458016,12.5030545 3.41738204,13.6657496 C4.38266848,14.365106 5.66331969,14.75 7,14.75 C8.33669479,14.75 9.61712341,14.3651073 10.5810973,13.6661271 C12.1848206,12.5029603 12.8515422,10.6988432 12.7377662,8.31021907 C12.6621165,6.72202252 12.2427972,4.98443971 11.5885445,3.22771591 C11.3305976,2.53510658 11.054055,1.88853985 10.7782465,1.30750171 L10.4951881,0.73460817 C10.4672752,0.680980302 10.4436715,0.636823825 10.4248303,0.6025806 C10.0920342,-0.00226491076 10.3125739,-0.762373601 10.9174194,-1.09516968 Z"/>
      <path d="M7,14.75 C7.64720869,14.75 8.1795339,15.2418747 8.24354639,15.8721948 L8.25,16 L8.25,23 C8.25,23.6903559 7.69035594,24.25 7,24.25 C6.35279131,24.25 5.8204661,23.7581253 5.75645361,23.1278052 L5.75,23 L5.75,16 C5.75,15.3096441 6.30964406,14.75 7,14.75 Z"/>
      <path d="M12,22.75 C12.6903559,22.75 13.25,23.3096441 13.25,24 C13.25,24.6472087 12.7581253,25.1795339 12.1278052,25.2435464 L12,25.25 L2,25.25 C1.30964406,25.25 0.75,24.6903559 0.75,24 C0.75,23.3527913 1.24187466,22.8204661 1.87219476,22.7564536 L2,22.75 L12,22.75 Z"/>
    </g>
  </g>
</svg>
